<svg width="18" height="18" viewBox="0 0 18 18" fill="none" xmlns="http://www.w3.org/2000/svg">
<g clip-path="url(#clip0_4757_39547)">
<path d="M12.4639 0C12.5058 0 12.5477 0 12.592 0C12.6947 1.2694 12.2102 2.21789 11.6213 2.90476C11.0435 3.58688 10.2523 4.24845 8.97267 4.14807C8.88731 2.89685 9.37262 2.01871 9.96068 1.33342C10.5061 0.69477 11.5059 0.126466 12.4639 0Z" fill="white"/>
<path d="M16.3377 13.2118C16.3377 13.2244 16.3377 13.2355 16.3377 13.2474C15.9781 14.3366 15.4651 15.27 14.8391 16.1363C14.2676 16.9228 13.5673 17.9811 12.3169 17.9811C11.2364 17.9811 10.5187 17.2864 9.41135 17.2674C8.23996 17.2484 7.59578 17.8483 6.52477 17.9993C6.40226 17.9993 6.27975 17.9993 6.1596 17.9993C5.37315 17.8855 4.73845 17.2626 4.27606 16.7015C2.9126 15.0432 1.85899 12.9012 1.66296 10.16C1.66296 9.89129 1.66296 9.62334 1.66296 9.3546C1.74596 7.3928 2.69919 5.79776 3.96622 5.02474C4.6349 4.61372 5.55415 4.26357 6.57773 4.42007C7.01641 4.48805 7.46457 4.63823 7.8574 4.78682C8.22969 4.92989 8.69524 5.18361 9.13629 5.17017C9.43506 5.16148 9.73226 5.00577 10.0334 4.8959C10.9155 4.57736 11.7802 4.21219 12.92 4.38371C14.2898 4.5908 15.262 5.19942 15.8627 6.13842C14.7039 6.87588 13.7878 7.98719 13.9443 9.88496C14.0835 11.6088 15.0857 12.6174 16.3377 13.2118Z" fill="white"/>
</g>
<defs>
<clipPath id="clip0_4757_39547">
<rect width="18" height="18" fill="white"/>
</clipPath>
</defs>
</svg>
