<svg viewBox="0 0 24 24" fill="none" xmlns="http://www.w3.org/2000/svg">
<path d="M17.5049 3.67751C15.5549 3.67751 13.4549 4.07751 12.0049 5.17751C10.5549 4.07751 8.45488 3.67751 6.50488 3.67751C5.05488 3.67751 3.51488 3.89751 2.22488 4.46751C1.49488 4.79751 1.00488 5.50751 1.00488 6.31751V17.5975C1.00488 18.8975 2.22488 19.8575 3.48488 19.5375C4.46488 19.2875 5.50488 19.1775 6.50488 19.1775C8.06488 19.1775 9.72488 19.4375 11.0649 20.0975C11.6649 20.3975 12.3449 20.3975 12.9349 20.0975C14.2749 19.4275 15.9349 19.1775 17.4949 19.1775C18.4949 19.1775 19.5349 19.2875 20.5149 19.5375C21.7749 19.8675 22.9949 18.9075 22.9949 17.5975V6.31751C22.9949 5.50751 22.5049 4.79751 21.7749 4.46751C20.4949 3.89751 18.9549 3.67751 17.5049 3.67751ZM21.0049 16.4075C21.0049 17.0375 20.4249 17.4975 19.8049 17.3875C19.0549 17.2475 18.2749 17.1875 17.5049 17.1875C15.8049 17.1875 13.3549 17.8375 12.0049 18.6875V7.17751C13.3549 6.32751 15.8049 5.67751 17.5049 5.67751C18.4249 5.67751 19.3349 5.76751 20.2049 5.95751C20.6649 6.05751 21.0049 6.46751 21.0049 6.93751V16.4075Z" fill="currentColor"/>
<path d="M13.9849 10.1875C13.6649 10.1875 13.3749 9.98751 13.2749 9.66751C13.1449 9.27751 13.3649 8.84751 13.7549 8.72751C15.2949 8.22751 17.2849 8.06751 19.1149 8.27751C19.5249 8.32751 19.8249 8.69751 19.7749 9.10751C19.7249 9.51751 19.3549 9.81751 18.9449 9.76751C17.3249 9.57751 15.5549 9.72751 14.2149 10.1575C14.1349 10.1675 14.0549 10.1875 13.9849 10.1875Z" fill="currentColor"/>
<path d="M13.9849 12.8475C13.6649 12.8475 13.3749 12.6475 13.2749 12.3275C13.1449 11.9375 13.3649 11.5075 13.7549 11.3875C15.2849 10.8875 17.2849 10.7275 19.1149 10.9375C19.5249 10.9875 19.8249 11.3575 19.7749 11.7675C19.7249 12.1775 19.3549 12.4775 18.9449 12.4275C17.3249 12.2375 15.5549 12.3875 14.2149 12.8175C14.1349 12.8375 14.0549 12.8475 13.9849 12.8475Z" fill="currentColor"/>
<path d="M13.9849 15.5075C13.6649 15.5075 13.3749 15.3075 13.2749 14.9875C13.1449 14.5975 13.3649 14.1675 13.7549 14.0475C15.2849 13.5475 17.2849 13.3875 19.1149 13.5975C19.5249 13.6475 19.8249 14.0175 19.7749 14.4275C19.7249 14.8375 19.3549 15.1275 18.9449 15.0875C17.3249 14.8975 15.5549 15.0475 14.2149 15.4775C14.1349 15.4975 14.0549 15.5075 13.9849 15.5075Z" fill="currentColor"/>
</svg>
