<svg width="58" height="58" viewBox="0 0 58 58" fill="none" xmlns="http://www.w3.org/2000/svg">
<path d="M18.9235 19.9997L7.78212 48.9672C7.47516 49.7653 8.24652 50.5555 9.0518 50.2679L37.5737 40.0815C38.2493 39.8403 38.4586 38.9871 37.9713 38.4606L20.5908 19.6794C20.0879 19.136 19.1893 19.3086 18.9235 19.9997Z" stroke="#302D3D" stroke-width="1.6"/>
<path d="M31.2552 27.1873C33.9218 30.0885 35.9806 33.0014 37.1613 35.3488C37.7543 36.5276 38.1043 37.5218 38.2192 38.2763C38.3392 39.0649 38.1767 39.3787 38.0585 39.4874C37.9402 39.5961 37.6138 39.7316 36.8381 39.5457C36.096 39.3678 35.1347 38.9353 34.01 38.2454C31.7702 36.8713 29.0408 34.5749 26.3742 31.6737C23.7075 28.7724 21.6488 25.8595 20.468 23.5121C19.8751 22.3334 19.525 21.3391 19.4101 20.5846C19.2901 19.7961 19.4526 19.4822 19.5709 19.3735C19.6891 19.2648 20.0156 19.1293 20.7912 19.3152C21.5334 19.4931 22.4946 19.9256 23.6194 20.6156C25.8591 21.9896 28.5885 24.2861 31.2552 27.1873Z" fill="#D9D9D9" stroke="#302D3D" stroke-width="1.6"/>
<path d="M10.5485 49.6997L9.37785 45.1865L11.3439 40.0702L13.5487 48.5205L10.5485 49.6997Z" fill="#FFB156" stroke="#302D3D" stroke-width="1.6"/>
<path d="M17.6181 47.2088L13.8994 33.1542L15.8438 28.0783L20.5299 46.1085L17.6181 47.2088Z" fill="#FFB156" stroke="#302D3D" stroke-width="1.6"/>
<path d="M27.8489 43.4291L25.0568 44.4494L19.7748 23.7282L24.7721 30.3904L27.8489 43.4291Z" fill="#FFB156" stroke="#302D3D" stroke-width="1.6"/>
<path d="M32.5674 41.8046L31.2818 36.4301L36.5287 40.1772L36.6638 40.2736L36.6676 40.2742L36.6637 40.2771L32.5674 41.8046Z" fill="#FFB156" stroke="#302D3D" stroke-width="1.6"/>
<rect x="19" y="12.1484" width="3" height="4" rx="0.4" transform="rotate(-22.522 19 12.1484)" fill="#FFCE56" stroke="#302D3D" stroke-width="1.6"/>
<rect x="25" y="4.55469" width="3" height="4" rx="0.4" transform="rotate(-10.6605 25 4.55469)" fill="#E15A5A" stroke="#302D3D" stroke-width="1.6"/>
<rect x="52.9253" y="29.8125" width="3" height="4" rx="0.4" transform="rotate(116.956 52.9253 29.8125)" fill="#5D739C" stroke="#302D3D" stroke-width="1.6"/>
<rect x="49.5051" y="18" width="3" height="3" rx="0.4" transform="rotate(56.6224 49.5051 18)" fill="#E15A5A" stroke="#302D3D" stroke-width="1.6"/>
<rect x="42.1309" y="36" width="3" height="3" rx="0.4" transform="rotate(2.50197 42.1309 36)" fill="#FFCE56" stroke="#302D3D" stroke-width="1.6"/>
<rect x="46.791" y="7" width="3" height="4" rx="0.4" transform="rotate(44.2465 46.791 7)" fill="#FFCE56" stroke="#302D3D" stroke-width="1.6"/>
<path d="M31.2173 14.1252C31.3165 13.9071 31.584 13.8245 31.7889 13.9489L33.5102 14.9934C33.6725 15.0918 33.7432 15.2908 33.6795 15.4695L32.4551 18.908C32.4242 18.9947 32.3645 19.068 32.2859 19.1157L29.1652 21.0105C29.085 21.0592 29.0244 21.1346 28.9942 21.2234L27.7243 24.9503C27.6419 25.1923 27.3568 25.2959 27.1382 25.1633L25.4352 24.1299C25.2832 24.0377 25.2103 23.8561 25.2564 23.6844L26.4085 19.3876C26.4384 19.2762 26.5149 19.1831 26.6183 19.1322L29.4805 17.7244C29.5635 17.6836 29.6298 17.6153 29.6681 17.5311L31.2173 14.1252Z" fill="#11A6AD" stroke="#302D3D" stroke-width="1.6"/>
<path d="M40.619 17.3254C40.76 17.127 41.0441 17.0994 41.2206 17.267L42.6821 18.655C42.8154 18.7817 42.8452 18.9829 42.7543 19.1428L41.2811 21.7332C41.2276 21.8273 41.1383 21.8956 41.0335 21.9227L38.042 22.6964C37.9351 22.7241 37.8444 22.7947 37.7913 22.8916L36.2722 25.6659C36.1462 25.8961 35.8363 25.9446 35.6459 25.7638L34.2056 24.396C34.0823 24.2789 34.0465 24.0966 34.1164 23.9416L35.6277 20.5877C35.6831 20.4648 35.7966 20.3781 35.9297 20.357L38.6214 19.9299C38.7276 19.913 38.8226 19.8541 38.8848 19.7665L40.619 17.3254Z" fill="#FFB156" stroke="#302D3D" stroke-width="1.6"/>
<path d="M45.605 27.3456C45.8232 27.2531 45.9136 26.9923 45.7994 26.7846L44.8303 25.022C44.7368 24.852 44.5347 24.7735 44.351 24.836L40.2606 26.2271C40.1851 26.2528 40.1189 26.3005 40.0707 26.3641L37.5242 29.7234C37.475 29.7883 37.4071 29.8366 37.3297 29.8619L32.8594 31.3231C32.6211 31.401 32.5124 31.6763 32.6332 31.896L33.5942 33.644C33.6827 33.8049 33.8693 33.8849 34.0468 33.8381L39.0969 32.5052C39.1942 32.4795 39.2782 32.4182 39.3322 32.3334L41.2982 29.248C41.3417 29.1798 41.4049 29.1263 41.4794 29.0947L45.605 27.3456Z" fill="#11A6AD" stroke="#302D3D" stroke-width="1.6"/>
<rect x="37.4236" y="8" width="3" height="3" rx="0.4" transform="rotate(53.8914 37.4236 8)" fill="#5D739C" stroke="#302D3D" stroke-width="1.6"/>
</svg>
