<svg width="187" height="85" viewBox="0 0 187 85" fill="none" xmlns="http://www.w3.org/2000/svg">
<path d="M2.875 59V4H14.1875L19.25 30.3438V4H29.875V59H19.125L13.625 31.5V59H2.875ZM33.25 59L38.5625 4H57.2188L62.4375 59H52.0312L51.25 50.125H44.625L43.9375 59H33.25ZM45.4062 41.3438H50.4062L48 13.375H47.5L45.4062 41.3438ZM78 59.5C75.5208 59.5 73.2604 59.0208 71.2188 58.0625C69.1771 57.1042 67.5521 55.6875 66.3438 53.8125C65.1562 51.9167 64.5625 49.5938 64.5625 46.8438V33.0625H75.4375V46.1875C75.4375 47.1458 75.625 47.9167 76 48.5C76.3958 49.0833 77.0208 49.375 77.875 49.375C79.5208 49.375 80.3438 48.3646 80.3438 46.3438V4H91.4375V45.25C91.4375 48.1667 90.8646 50.6979 89.7188 52.8438C88.5729 54.9688 86.9896 56.6146 84.9688 57.7812C82.9479 58.9271 80.625 59.5 78 59.5ZM108.406 59.5C103.823 59.5 100.448 58.2188 98.2812 55.6562C96.1146 53.0729 95.0312 49.2812 95.0312 44.2812V4H105.719V43.8438C105.719 44.7604 105.771 45.6458 105.875 46.5C105.979 47.3333 106.219 48.0208 106.594 48.5625C106.969 49.1042 107.573 49.375 108.406 49.375C109.26 49.375 109.875 49.1146 110.25 48.5938C110.625 48.0521 110.854 47.3542 110.938 46.5C111.042 45.6458 111.094 44.7604 111.094 43.8438V4H121.781V44.2812C121.781 49.2812 120.698 53.0729 118.531 55.6562C116.365 58.2188 112.99 59.5 108.406 59.5ZM126 59V4H136.938V23.6562H142.125V4H153.062V59H142.125V34.0625H136.938V59H126ZM156.438 59L161.75 4H180.406L185.625 59H175.219L174.438 50.125H167.812L167.125 59H156.438ZM168.594 41.3438H173.594L171.188 13.375H170.688L168.594 41.3438Z" fill="#1A1A1A"/>
<path d="M27.7361 75.544H30.4081V76.664H27.7361V75.544ZM26.7601 69.768H28.1041V84.248H26.7601V69.768ZM17.5441 71.192H18.8721V80.152H17.5441V71.192ZM17.5441 79.464H18.6961C20.8401 79.464 23.0321 79.32 25.4161 78.824L25.5761 79.928C23.1121 80.44 20.8881 80.584 18.6961 80.584H17.5441V79.464ZM33.4869 74.12H43.3109V75.208H33.4869V74.12ZM31.7109 77.144H44.8309V78.232H31.7109V77.144ZM33.4869 70.312H34.7989V74.664H33.4869V70.312ZM33.3909 82.808H43.3909V83.896H33.3909V82.808ZM33.3909 79.672H34.7029V83.096H33.3909V79.672ZM55.8638 71.208H57.0158V71.816C57.0158 74.408 54.2638 76.312 51.3518 76.808L50.8398 75.752C53.3838 75.384 55.8638 73.72 55.8638 71.816V71.208ZM56.1998 71.208H57.3358V71.816C57.3358 73.72 59.8318 75.384 62.3598 75.752L61.8638 76.808C58.9358 76.312 56.1998 74.408 56.1998 71.816V71.208ZM55.9118 78.728H57.2238V84.248H55.9118V78.728ZM50.0718 78.024H63.1438V79.112H50.0718V78.024ZM51.2878 70.68H61.8798V71.752H51.2878V70.68ZM68.6545 71.224H69.7585V72.376C69.7585 75.064 68.1425 77.336 65.7105 78.216L65.0225 77.176C67.1985 76.408 68.6545 74.472 68.6545 72.376V71.224ZM68.9105 71.224H70.0145V72.376C70.0145 74.312 71.5185 76.056 73.6625 76.76L72.9905 77.8C70.5905 76.984 68.9105 74.888 68.9105 72.376V71.224ZM65.3585 70.888H73.2785V71.976H65.3585V70.888ZM75.3265 69.784H76.6705V79.608H75.3265V69.784ZM71.2945 78.808H72.4305V79.16C72.4305 81.864 69.8865 83.656 66.9745 84.2L66.4625 83.144C69.0385 82.728 71.2945 81.208 71.2945 79.16V78.808ZM71.5345 78.808H72.6705V79.16C72.6705 81.208 74.9105 82.728 77.5025 83.144L76.9745 84.2C74.0625 83.656 71.5345 81.864 71.5345 79.16V78.808ZM85.3973 70.296H86.5653V71.096C86.5653 73.864 83.7493 75.848 80.7413 76.36L80.2133 75.288C82.8533 74.888 85.3973 73.16 85.3973 71.096V70.296ZM85.6373 70.296H86.7893V71.096C86.7893 73.112 89.3653 74.888 91.9733 75.288L91.4453 76.36C88.4693 75.848 85.6373 73.832 85.6373 71.096V70.296ZM85.3973 78.744H86.7093V84.248H85.3973V78.744ZM79.5573 77.928H92.6293V79.032H79.5573V77.928ZM104.076 69.768H105.42V84.248H104.076V69.768ZM105.052 75.64H107.724V76.744H105.052V75.64ZM100.38 71.336H101.676C101.676 75.448 99.788 79.16 95.116 81.512L94.38 80.488C98.38 78.456 100.38 75.368 100.38 71.544V71.336ZM95.052 71.336H101.068V72.424H95.052V71.336ZM122.437 69.784H123.765V84.248H122.437V69.784ZM123.445 75.72H126.133V76.84H123.445V75.72ZM112.565 72.088H121.093V73.176H112.565V72.088ZM116.885 74.376C118.933 74.376 120.405 75.752 120.405 77.704C120.405 79.656 118.933 81.032 116.885 81.032C114.853 81.032 113.365 79.656 113.365 77.704C113.365 75.752 114.853 74.376 116.885 74.376ZM116.885 75.48C115.573 75.48 114.629 76.392 114.629 77.704C114.629 79 115.573 79.928 116.885 79.928C118.197 79.928 119.141 79 119.141 77.704C119.141 76.392 118.197 75.48 116.885 75.48ZM116.197 69.96H117.525V72.584H116.197V69.96ZM128.764 71.224H138.076V72.328H128.764V71.224ZM127.388 81.128H140.46V82.232H127.388V81.128ZM132.46 75.96H133.788V81.672H132.46V75.96ZM137.58 71.224H138.892V72.664C138.892 74.456 138.892 76.44 138.364 79.368L137.036 79.192C137.58 76.424 137.58 74.392 137.58 72.664V71.224ZM152.642 69.8H153.986V77.816H152.642V69.8ZM145.89 70.312H146.994V71.72C146.994 74.392 145.33 76.648 142.882 77.528L142.21 76.488C144.386 75.72 145.89 73.8 145.89 71.72V70.312ZM146.13 70.312H147.218V71.72C147.218 73.736 148.738 75.512 150.882 76.216L150.226 77.272C147.794 76.44 146.13 74.312 146.13 71.72V70.312ZM144.418 78.68H154.066V79.768H144.418V78.68ZM144.274 82.984H154.226V84.056H144.274V82.984ZM146.402 79.144H147.698V83.608H146.402V79.144ZM150.786 79.144H152.098V83.608H150.786V79.144ZM166.649 69.768H167.993V84.264H166.649V69.768ZM167.673 75.48H170.361V76.6H167.673V75.48ZM157.481 79.544H158.617C161.289 79.544 163.161 79.448 165.321 79.048L165.465 80.168C163.241 80.584 161.337 80.664 158.617 80.664H157.481V79.544ZM157.481 71.176H164.201V72.264H158.793V80.04H157.481V71.176Z" fill="#1A1A1A"/>
</svg>
