<svg viewBox="0 0 24 24" fill="none" xmlns="http://www.w3.org/2000/svg">
<path d="M11.7324 6.43083C11.8845 6.29392 12.1155 6.29392 12.2676 6.43083L16.8676 10.5708C16.9519 10.6467 17 10.7547 17 10.8681V18.1C17 18.3209 16.8209 18.5 16.6 18.5H15.4C15.1791 18.5 15 18.3209 15 18.1V13.3C15 12.8582 14.6418 12.5 14.2 12.5H9.8C9.35817 12.5 9 12.8582 9 13.3V18.1C9 18.3209 8.82091 18.5 8.6 18.5H7.4C7.17909 18.5 7 18.3209 7 18.1V10.8681C7 10.7547 7.04813 10.6467 7.13241 10.5708L11.7324 6.43083ZM12.2676 3.74083C12.1155 3.60392 11.8845 3.60392 11.7324 3.74083L2.7748 11.8027C2.50231 12.0479 2.67579 12.5 3.04238 12.5H4.6C4.82091 12.5 5 12.6791 5 12.9V19.7C5 20.1418 5.35817 20.5 5.8 20.5H10.2C10.6418 20.5 11 20.1418 11 19.7V14.9C11 14.6791 11.1791 14.5 11.4 14.5H12.6C12.8209 14.5 13 14.6791 13 14.9V19.7C13 20.1418 13.3582 20.5 13.8 20.5H18.2C18.6418 20.5 19 20.1418 19 19.7V12.9C19 12.6791 19.1791 12.5 19.4 12.5H20.9576C21.3242 12.5 21.4977 12.0479 21.2252 11.8027L12.2676 3.74083Z" fill="currentColor"/>
</svg>
