<svg width="85" height="28" viewBox="0 0 85 28" fill="none" xmlns="http://www.w3.org/2000/svg">
<path d="M2.85156 26V1.9375H7.80078L10.0156 13.4629V1.9375H14.6641V26H9.96094L7.55469 13.9688V26H2.85156ZM16.1406 26L18.4648 1.9375H26.627L28.9102 26H24.3574L24.0156 22.1172H21.1172L20.8164 26H16.1406ZM21.459 18.2754H23.6465L22.5938 6.03906H22.375L21.459 18.2754ZM35.7188 26.2188C34.6341 26.2188 33.6452 26.0091 32.752 25.5898C31.8587 25.1706 31.1478 24.5508 30.6191 23.7305C30.0996 22.901 29.8398 21.8848 29.8398 20.6816V14.6523H34.5977V20.3945C34.5977 20.8138 34.6797 21.151 34.8438 21.4062C35.0169 21.6615 35.2904 21.7891 35.6641 21.7891C36.3841 21.7891 36.7441 21.347 36.7441 20.4629V1.9375H41.5977V19.9844C41.5977 21.2604 41.347 22.3678 40.8457 23.3066C40.3444 24.2363 39.6517 24.9564 38.7676 25.4668C37.8835 25.9681 36.8672 26.2188 35.7188 26.2188ZM49.0215 26.2188C47.0163 26.2188 45.5397 25.6582 44.5918 24.5371C43.6439 23.4069 43.1699 21.748 43.1699 19.5605V1.9375H47.8457V19.3691C47.8457 19.7702 47.8685 20.1576 47.9141 20.5312C47.9596 20.8958 48.0645 21.1966 48.2285 21.4336C48.3926 21.6706 48.6569 21.7891 49.0215 21.7891C49.3952 21.7891 49.6641 21.6751 49.8281 21.4473C49.9922 21.2103 50.0924 20.9049 50.1289 20.5312C50.1745 20.1576 50.1973 19.7702 50.1973 19.3691V1.9375H54.873V19.5605C54.873 21.748 54.3991 23.4069 53.4512 24.5371C52.5033 25.6582 51.0267 26.2188 49.0215 26.2188ZM56.7188 26V1.9375H61.5039V10.5371H63.7734V1.9375H68.5586V26H63.7734V15.0898H61.5039V26H56.7188ZM70.0352 26L72.3594 1.9375H80.5215L82.8047 26H78.252L77.9102 22.1172H75.0117L74.7109 26H70.0352ZM75.3535 18.2754H77.541L76.4883 6.03906H76.2695L75.3535 18.2754Z" fill="#080808"/>
</svg>
