<svg width="58" height="58" viewBox="0 0 58 58" fill="none" xmlns="http://www.w3.org/2000/svg">
<path d="M10.6032 30.9557C10.6239 30.8646 10.7048 30.8 10.7982 30.8H46.6838C46.7789 30.8 46.8607 30.8668 46.8798 30.9599L50.9707 50.9599C50.9961 51.0839 50.9013 51.2 50.7747 51.2H6.25277C6.12443 51.2 6.0293 51.0808 6.05775 50.9557L10.6032 30.9557Z" fill="#5D739C"/>
<path d="M10.6032 30.9557C10.6239 30.8646 10.7048 30.8 10.7982 30.8H46.6838C46.7789 30.8 46.8607 30.8668 46.8798 30.9599L50.9707 50.9599C50.9961 51.0839 50.9013 51.2 50.7747 51.2H6.25277C6.12443 51.2 6.0293 51.0808 6.05775 50.9557L10.6032 30.9557Z" fill="black" fill-opacity="0.2"/>
<path d="M10.6032 30.9557C10.6239 30.8646 10.7048 30.8 10.7982 30.8H46.6838C46.7789 30.8 46.8607 30.8668 46.8798 30.9599L50.9707 50.9599C50.9961 51.0839 50.9013 51.2 50.7747 51.2H6.25277C6.12443 51.2 6.0293 51.0808 6.05775 50.9557L10.6032 30.9557Z" stroke="#302D3D" stroke-width="1.6"/>
<path d="M12.0352 37.771L12.0352 23.9717H16.377L16.377 37.771C16.377 38.082 16.3102 38.3893 16.1811 38.6723C15.4085 40.3651 13.0036 40.3651 12.2311 38.6723C12.102 38.3893 12.0352 38.082 12.0352 37.771Z" fill="#E6E9ED" stroke="#302D3D" stroke-width="1.6"/>
<path d="M12.0352 39.6301V38.7699H16.377V39.6301C16.377 40.5419 15.8073 41.3565 14.9508 41.6693C14.4699 41.8449 13.9423 41.8449 13.4613 41.6693C12.6049 41.3565 12.0352 40.5419 12.0352 39.6301Z" fill="#FFC998" stroke="#302D3D" stroke-width="1.6"/>
<path d="M15.2917 37.771L15.2917 23.9717H19.6336L19.6336 37.771C19.6336 38.082 19.5668 38.3893 19.4376 38.6723C18.6651 40.3651 16.2602 40.3651 15.4877 38.6723C15.3586 38.3893 15.2917 38.082 15.2917 37.771Z" fill="#E6E9ED" stroke="#302D3D" stroke-width="1.6"/>
<path d="M15.2917 39.6301V38.7699H19.6336V39.6301C19.6336 40.5419 19.0639 41.3565 18.2074 41.6693C17.7264 41.8449 17.1989 41.8449 16.7179 41.6693C15.8615 41.3565 15.2917 40.5419 15.2917 39.6301Z" fill="#FFC998" stroke="#302D3D" stroke-width="1.6"/>
<path fill-rule="evenodd" clip-rule="evenodd" d="M21.8542 22.6092L19.7161 27.6126C19.6651 27.7319 19.5267 27.7883 19.4068 27.7385L11.1872 24.3216C11.0674 24.2718 11.0116 24.1347 11.0626 24.0154L14.581 15.7821C15.1355 14.4845 16.2477 13.5 17.6088 13.1023C19.7478 12.4772 22.0249 13.4238 23.065 15.3704C23.5801 16.3346 23.732 17.4407 23.5124 18.4956L26.8708 22.2653C27.1692 22.6002 27.343 23.0232 27.3639 23.4656C27.4236 24.7287 26.2604 25.7121 24.9851 25.4767C24.5385 25.3942 24.133 25.1671 23.8347 24.8322L21.8542 22.6092Z" fill="#E6E9ED"/>
<path d="M21.8542 22.6092L22.4516 22.077L21.6136 21.1364L21.1186 22.2948L21.8542 22.6092ZM19.7161 27.6126L20.4518 27.927L20.4518 27.927L19.7161 27.6126ZM19.4068 27.7385L19.0998 28.4772L19.0998 28.4772L19.4068 27.7385ZM11.1872 24.3216L11.4943 23.5829H11.4943L11.1872 24.3216ZM11.0626 24.0154L10.3269 23.701L10.3269 23.701L11.0626 24.0154ZM14.581 15.7821L15.3166 16.0965L14.581 15.7821ZM17.6088 13.1023L17.3844 12.3344V12.3344L17.6088 13.1023ZM23.065 15.3704L23.7706 14.9934L23.7706 14.9934L23.065 15.3704ZM23.5124 18.4956L22.7292 18.3325L22.6471 18.7269L22.9151 19.0277L23.5124 18.4956ZM26.8708 22.2653L26.2735 22.7975L26.2735 22.7975L26.8708 22.2653ZM27.3639 23.4656L26.5648 23.5034L26.5648 23.5034L27.3639 23.4656ZM24.9851 25.4767L25.1303 24.69L24.9851 25.4767ZM23.8347 24.8322L24.432 24.3001L24.432 24.3001L23.8347 24.8322ZM21.1186 22.2948L18.9805 27.2983L20.4518 27.927L22.5899 22.9236L21.1186 22.2948ZM18.9805 27.2982C19.1019 27.0141 19.4286 26.8812 19.7139 26.9998L19.0998 28.4772C19.6247 28.6954 20.2284 28.4498 20.4518 27.927L18.9805 27.2982ZM19.7139 26.9998L11.4943 23.5829L10.8801 25.0603L19.0998 28.4772L19.7139 26.9998ZM11.4943 23.5829C11.7853 23.7039 11.9221 24.0399 11.7982 24.3298L10.3269 23.701C10.1011 24.2295 10.3495 24.8397 10.8801 25.0603L11.4943 23.5829ZM11.7982 24.3298L15.3166 16.0965L13.8453 15.4677L10.3269 23.701L11.7982 24.3298ZM15.3166 16.0965C15.7766 15.0201 16.7005 14.2012 17.8332 13.8702L17.3844 12.3344C15.795 12.7989 14.4944 13.9488 13.8453 15.4677L15.3166 16.0965ZM17.8332 13.8702C19.614 13.3498 21.5003 14.1395 22.3594 15.7474L23.7706 14.9934C22.5495 12.7081 19.8817 11.6046 17.3844 12.3344L17.8332 13.8702ZM22.3594 15.7474C22.7851 16.5442 22.911 17.4589 22.7292 18.3325L24.2956 18.6586C24.5529 17.4224 24.3752 16.125 23.7706 14.9934L22.3594 15.7474ZM22.9151 19.0277L26.2735 22.7975L27.4682 21.7332L24.1097 17.9634L22.9151 19.0277ZM26.2735 22.7975C26.4517 22.9975 26.5526 23.2466 26.5648 23.5034L28.163 23.4278C28.1333 22.7999 27.8867 22.203 27.4682 21.7332L26.2735 22.7975ZM26.5648 23.5034C26.5989 24.2245 25.9257 24.8368 25.1303 24.69L24.8399 26.2634C26.595 26.5874 28.2483 25.2329 28.163 23.4278L26.5648 23.5034ZM25.1303 24.69C24.8561 24.6394 24.6105 24.5005 24.432 24.3001L23.2374 25.3644C23.6555 25.8338 24.2208 26.1491 24.8399 26.2634L25.1303 24.69ZM24.432 24.3001L22.4516 22.077L21.2569 23.1414L23.2374 25.3644L24.432 24.3001Z" fill="#302D3D"/>
<path d="M24.5431 25.6278L23.9136 24.9212L26.9516 22.3528L27.5811 23.0594C28.1275 23.6728 28.2321 24.5492 27.8443 25.2652C27.6104 25.6969 27.2194 26.0274 26.7478 26.1922C25.9655 26.4654 25.0895 26.2412 24.5431 25.6278Z" fill="#FFC998" stroke="#302D3D" stroke-width="1.6"/>
<path d="M27.246 10.2285C27.246 12.1022 25.6803 13.657 23.7041 13.657C21.728 13.657 20.1623 12.1022 20.1623 10.2285C20.1623 8.35481 21.728 6.8 23.7041 6.8C25.6803 6.8 27.246 8.35481 27.246 10.2285Z" fill="#FFC998" stroke="#302D3D" stroke-width="1.6"/>
<path d="M22.1082 23.4177L19.0507 18.6171" stroke="#302D3D" stroke-width="1.6" stroke-linecap="round"/>
<path d="M20.6101 24.5298L12.3893 21.0063" stroke="#302D3D" stroke-width="1.6"/>
<path d="M45.9646 37.7719V23.9727H41.6228V37.7719C41.6228 38.0829 41.6896 38.3903 41.8187 38.6732C42.5912 40.366 44.9961 40.366 45.7687 38.6732C45.8978 38.3903 45.9646 38.0829 45.9646 37.7719Z" fill="#E6E9ED" stroke="#302D3D" stroke-width="1.6"/>
<path d="M45.9646 39.6297V38.7695H41.6228V39.6297C41.6228 40.5415 42.1925 41.3561 43.0489 41.6689C43.5299 41.8446 44.0575 41.8446 44.5384 41.6689C45.3949 41.3561 45.9646 40.5415 45.9646 39.6297Z" fill="#FFC998" stroke="#302D3D" stroke-width="1.6"/>
<path d="M42.708 37.7719V23.9727H38.3662V37.7719C38.3662 38.0829 38.433 38.3903 38.5621 38.6732C39.3346 40.366 41.7395 40.366 42.5121 38.6732C42.6412 38.3903 42.708 38.0829 42.708 37.7719Z" fill="#E6E9ED" stroke="#302D3D" stroke-width="1.6"/>
<path d="M42.708 39.6297V38.7695H38.3662V39.6297C38.3662 40.5415 38.9359 41.3561 39.7924 41.6689C40.2733 41.8446 40.8009 41.8446 41.2818 41.6689C42.1383 41.3561 42.708 40.5415 42.708 39.6297Z" fill="#FFC998" stroke="#302D3D" stroke-width="1.6"/>
<path fill-rule="evenodd" clip-rule="evenodd" d="M36.1455 22.6086L38.2836 27.6121C38.3346 27.7314 38.4731 27.7877 38.5929 27.7379L46.8125 24.3211C46.9324 24.2713 46.9882 24.1342 46.9372 24.0148L43.4188 15.7816C42.8643 14.4839 41.752 13.4995 40.391 13.1017C38.2519 12.4766 35.9748 13.4232 34.9348 15.3698C34.4197 16.334 34.2678 17.44 34.4873 18.4949L31.1289 22.2647C30.8306 22.5996 30.6568 23.0226 30.6359 23.4649C30.5762 24.728 31.7394 25.7114 33.0147 25.476C33.4613 25.3936 33.8667 25.1664 34.1651 24.8315L36.1455 22.6086Z" fill="#E6E9ED"/>
<path d="M36.1455 22.6086L35.5481 22.0764L36.3861 21.1358L36.8811 22.2942L36.1455 22.6086ZM38.2836 27.6121L37.548 27.9264L37.548 27.9264L38.2836 27.6121ZM38.5929 27.7379L38.9 28.4766L38.9 28.4766L38.5929 27.7379ZM46.8125 24.3211L46.5055 23.5824H46.5055L46.8125 24.3211ZM46.9372 24.0148L47.6728 23.7005L47.6728 23.7005L46.9372 24.0148ZM43.4188 15.7816L42.6832 16.0959L43.4188 15.7816ZM40.391 13.1017L40.6154 12.3339V12.3339L40.391 13.1017ZM34.9348 15.3698L34.2292 14.9929L34.2292 14.9929L34.9348 15.3698ZM34.4873 18.4949L35.2705 18.3319L35.3526 18.7263L35.0847 19.0271L34.4873 18.4949ZM31.1289 22.2647L31.7263 22.7968V22.7968L31.1289 22.2647ZM30.6359 23.4649L31.435 23.5027L31.435 23.5027L30.6359 23.4649ZM33.0147 25.476L32.8694 24.6893L33.0147 25.476ZM34.1651 24.8315L33.5677 24.2994L33.5677 24.2994L34.1651 24.8315ZM36.8811 22.2942L39.0193 27.2977L37.548 27.9264L35.4098 22.9229L36.8811 22.2942ZM39.0193 27.2977C38.8979 27.0136 38.5711 26.8806 38.2858 26.9992L38.9 28.4766C38.375 28.6949 37.7714 28.4492 37.548 27.9264L39.0193 27.2977ZM38.2858 26.9992L46.5055 23.5824L47.1196 25.0598L38.9 28.4766L38.2858 26.9992ZM46.5055 23.5824C46.2144 23.7033 46.0777 24.0394 46.2015 24.3292L47.6728 23.7005C47.8986 24.2289 47.6503 24.8392 47.1196 25.0598L46.5055 23.5824ZM46.2015 24.3292L42.6832 16.0959L44.1545 15.4672L47.6728 23.7005L46.2015 24.3292ZM42.6832 16.0959C42.2232 15.0195 41.2992 14.2006 40.1666 13.8696L40.6154 12.3339C42.2048 12.7983 43.5054 13.9483 44.1545 15.4672L42.6832 16.0959ZM40.1666 13.8696C38.3858 13.3492 36.4995 14.1389 35.6404 15.7468L34.2292 14.9929C35.4502 12.7075 38.1181 11.6041 40.6154 12.3339L40.1666 13.8696ZM35.6404 15.7468C35.2147 16.5436 35.0887 17.4583 35.2705 18.3319L33.7041 18.6579C33.4468 17.4218 33.6246 16.1244 34.2292 14.9929L35.6404 15.7468ZM35.0847 19.0271L31.7263 22.7968L30.5316 21.7325L33.89 17.9627L35.0847 19.0271ZM31.7263 22.7968C31.5481 22.9968 31.4471 23.2459 31.435 23.5027L29.8368 23.4271C29.8665 22.7992 30.113 22.2023 30.5316 21.7325L31.7263 22.7968ZM31.435 23.5027C31.4009 24.2238 32.074 24.8361 32.8694 24.6893L33.1599 26.2627C31.4047 26.5867 29.7514 25.2322 29.8368 23.4271L31.435 23.5027ZM32.8694 24.6893C33.1436 24.6387 33.3892 24.4998 33.5677 24.2994L34.7624 25.3637C34.3442 25.8331 33.7789 26.1484 33.1599 26.2627L32.8694 24.6893ZM33.5677 24.2994L35.5481 22.0764L36.7428 23.1407L34.7624 25.3637L33.5677 24.2994Z" fill="#302D3D"/>
<path d="M33.4567 25.6285L34.0862 24.9219L31.0482 22.3535L30.4187 23.0601C29.8722 23.6735 29.7677 24.5498 30.1555 25.2659C30.3893 25.6976 30.7803 26.0281 31.252 26.1929C32.0343 26.4661 32.9102 26.2419 33.4567 25.6285Z" fill="#FFC998" stroke="#302D3D" stroke-width="1.6"/>
<path d="M30.7538 10.2285C30.7538 12.1022 32.3194 13.657 34.2956 13.657C36.2718 13.657 37.8375 12.1022 37.8375 10.2285C37.8375 8.35481 36.2718 6.8 34.2956 6.8C32.3194 6.8 30.7538 8.35481 30.7538 10.2285Z" fill="#FFC998" stroke="#302D3D" stroke-width="1.6"/>
<path d="M35.8916 23.4169L38.949 18.6163" stroke="#302D3D" stroke-width="1.6" stroke-linecap="round"/>
<path d="M37.3896 24.5293L45.6105 21.0058" stroke="#302D3D" stroke-width="1.6"/>
</svg>
