<svg width="16" height="16" viewBox="0 0 16 18" fill="none" xmlns="http://www.w3.org/2000/svg">
<path d="M14.999 12.419L10.419 16.999C10.029 17.389 9.38898 17.389 8.99898 16.999C8.60898 16.609 8.60898 15.969 8.99898 15.579L11.879 12.709H1.70898C1.15898 12.709 0.708984 12.259 0.708984 11.709V1.70898C0.708984 1.15898 1.15898 0.708984 1.70898 0.708984C2.25898 0.708984 2.70898 1.15898 2.70898 1.70898V10.709H11.879L8.99898 7.83898C8.60898 7.44898 8.60898 6.80898 8.99898 6.41898C9.38898 6.02898 10.029 6.02898 10.419 6.41898L14.999 10.999C15.389 11.389 15.389 12.029 14.999 12.419Z" fill="currentColor"/>
</svg>
