<svg width="58" height="58" viewBox="0 0 58 58" fill="none" xmlns="http://www.w3.org/2000/svg">
<path d="M19.354 27H38.7112C39.3643 27 39.8421 26.3842 39.6799 25.7516L37.5 17.25C36.9364 15.3237 35.1698 14 33.1627 14H31.1427H25.25C23.2622 14 21.5208 15.3316 21 17.25L18.3982 25.7059C18.2003 26.349 18.6812 27 19.354 27Z" fill="#E6E9ED" stroke="#302D3D" stroke-width="1.6"/>
<mask id="path-2-outside-1_4585_41143" maskUnits="userSpaceOnUse" x="16" y="22" width="7" height="5" fill="black">
<rect fill="white" x="16" y="22" width="7" height="5"/>
<path fill-rule="evenodd" clip-rule="evenodd" d="M20.9064 25C20.9617 25 21.0072 24.955 20.9991 24.9003C20.9237 24.3948 20.2813 24 19.5 24C18.7187 24 18.0763 24.3948 18.0009 24.9003C17.9928 24.955 18.0383 25 18.0936 25H20.9064Z"/>
</mask>
<path fill-rule="evenodd" clip-rule="evenodd" d="M20.9064 25C20.9617 25 21.0072 24.955 20.9991 24.9003C20.9237 24.3948 20.2813 24 19.5 24C18.7187 24 18.0763 24.3948 18.0009 24.9003C17.9928 24.955 18.0383 25 18.0936 25H20.9064Z" fill="#FFC998"/>
<path d="M18.0009 24.9003L16.4184 24.6644L18.0009 24.9003ZM20.9991 24.9003L22.5816 24.6644L20.9991 24.9003ZM19.5 25.6C19.6341 25.6 19.6969 25.6361 19.6862 25.6297C19.6783 25.6249 19.6308 25.595 19.574 25.521C19.5147 25.4438 19.4431 25.3142 19.4165 25.1362L22.5816 24.6644C22.4519 23.7944 21.8717 23.2117 21.3423 22.8915C20.7963 22.5613 20.1473 22.4 19.5 22.4V25.6ZM19.5835 25.1362C19.5569 25.3142 19.4853 25.4438 19.426 25.521C19.3692 25.595 19.3217 25.6249 19.3138 25.6297C19.3031 25.6361 19.3659 25.6 19.5 25.6V22.4C18.8527 22.4 18.2037 22.5613 17.6577 22.8915C17.1283 23.2117 16.5481 23.7944 16.4184 24.6644L19.5835 25.1362ZM18.0936 26.6H20.9064V23.4H18.0936V26.6ZM16.4184 24.6644C16.2423 25.8464 17.2302 26.6 18.0936 26.6V23.4C18.8465 23.4 19.7434 24.0635 19.5835 25.1362L16.4184 24.6644ZM19.4165 25.1362C19.2566 24.0635 20.1535 23.4 20.9064 23.4V26.6C21.7698 26.6 22.7578 25.8464 22.5816 24.6644L19.4165 25.1362Z" fill="#302D3D" mask="url(#path-2-outside-1_4585_41143)"/>
<mask id="path-4-outside-2_4585_41143" maskUnits="userSpaceOnUse" x="35" y="22" width="7" height="5" fill="black">
<rect fill="white" x="35" y="22" width="7" height="5"/>
<path fill-rule="evenodd" clip-rule="evenodd" d="M39.9064 25C39.9617 25 40.0072 24.955 39.9991 24.9003C39.9237 24.3948 39.2813 24 38.5 24C37.7187 24 37.0763 24.3948 37.0009 24.9003C36.9928 24.955 37.0383 25 37.0936 25H39.9064Z"/>
</mask>
<path fill-rule="evenodd" clip-rule="evenodd" d="M39.9064 25C39.9617 25 40.0072 24.955 39.9991 24.9003C39.9237 24.3948 39.2813 24 38.5 24C37.7187 24 37.0763 24.3948 37.0009 24.9003C36.9928 24.955 37.0383 25 37.0936 25H39.9064Z" fill="#FFC998"/>
<path d="M39.9991 24.9003L41.5816 24.6644L39.9991 24.9003ZM38.5 25.6C38.6341 25.6 38.6969 25.6361 38.6862 25.6297C38.6783 25.6249 38.6308 25.595 38.574 25.521C38.5147 25.4438 38.4431 25.3142 38.4165 25.1362L41.5816 24.6644C41.4519 23.7944 40.8717 23.2117 40.3423 22.8915C39.7963 22.5613 39.1473 22.4 38.5 22.4V25.6ZM38.5835 25.1362C38.5569 25.3142 38.4853 25.4438 38.426 25.521C38.3692 25.595 38.3217 25.6249 38.3138 25.6297C38.3031 25.6361 38.3659 25.6 38.5 25.6V22.4C37.8527 22.4 37.2037 22.5613 36.6577 22.8915C36.1283 23.2117 35.5481 23.7944 35.4184 24.6644L38.5835 25.1362ZM37.0936 26.6H39.9064V23.4H37.0936V26.6ZM35.4184 24.6644C35.2423 25.8464 36.2302 26.6 37.0936 26.6V23.4C37.8465 23.4 38.7434 24.0635 38.5835 25.1362L35.4184 24.6644ZM38.4165 25.1362C38.2566 24.0635 39.1535 23.4 39.9064 23.4V26.6C40.7698 26.6 41.7578 25.8464 41.5816 24.6644L38.4165 25.1362Z" fill="#302D3D" mask="url(#path-4-outside-2_4585_41143)"/>
<path d="M27 16.5V13H31V16.5C31 17.1295 30.7036 17.7223 30.2 18.1C29.4889 18.6333 28.5111 18.6333 27.8 18.1C27.2964 17.7223 27 17.1295 27 16.5Z" fill="#FFC998" stroke="#302D3D" stroke-width="1.6"/>
<circle cx="29" cy="10" r="3.2" fill="#FFC998" stroke="#302D3D" stroke-width="1.6"/>
<path d="M25.5 14.7H24.1916L24.7879 15.8646L28.7879 23.6771L29.551 25.1675L30.231 23.6374L30.731 22.5124L30.8881 22.1591L30.7088 21.8165L27.2088 15.129L26.9842 14.7H26.5H25.5Z" fill="#E6E9ED" stroke="#302D3D" stroke-width="1.6"/>
<path d="M32.5 14.7H33.6248L33.2557 15.7625L29.9558 25.2625L29.7691 25.8H29.2001H28H26.8527L27.2493 24.7234L30.7493 15.2234L30.9422 14.7H31.5H32.5Z" fill="#E6E9ED" stroke="#302D3D" stroke-width="1.6"/>
<mask id="path-10-inside-3_4585_41143" fill="white">
<rect x="15" y="25" width="28" height="5" rx="1"/>
</mask>
<rect x="15" y="25" width="28" height="5" rx="1" fill="#C8653E" stroke="#302D3D" stroke-width="3.2" mask="url(#path-10-inside-3_4585_41143)"/>
<mask id="path-11-inside-4_4585_41143" fill="white">
<rect x="20" y="29" width="18" height="22" rx="0.4"/>
</mask>
<rect x="20" y="29" width="18" height="22" rx="0.4" fill="#C8653E" stroke="#302D3D" stroke-width="3.2" mask="url(#path-11-inside-4_4585_41143)"/>
<ellipse cx="12.3857" cy="38.7217" rx="4.61569" ry="4.72173" fill="#3A466F" stroke="#302D3D" stroke-width="1.6"/>
<path fill-rule="evenodd" clip-rule="evenodd" d="M19.7694 51C19.7699 51 19.7702 50.9997 19.7702 50.9992C19.7702 46.8268 16.4638 43.4445 12.3851 43.4445C8.30642 43.4445 5 46.8268 5 50.9992C5 50.9997 5.00034 51 5.00077 51H19.7694Z" fill="#3A466F"/>
<path d="M12.3851 44.2445C16.0049 44.2445 18.9702 47.2514 18.9702 50.9992H20.5702C20.5702 46.4022 16.9226 42.6445 12.3851 42.6445V44.2445ZM5.8 50.9992C5.8 47.2514 8.76528 44.2445 12.3851 44.2445V42.6445C7.84756 42.6445 4.2 46.4022 4.2 50.9992H5.8ZM5.00077 51.8H19.7694V50.2H5.00077V51.8ZM4.2 50.9992C4.2 51.4415 4.55857 51.8 5.00077 51.8V50.2C5.44212 50.2 5.8 50.5578 5.8 50.9992H4.2ZM18.9702 50.9992C18.9702 50.5583 19.3275 50.2 19.7694 50.2V51.8C20.2122 51.8 20.5702 51.441 20.5702 50.9992H18.9702Z" fill="#302D3D"/>
<ellipse cx="34.5388" cy="38.7217" rx="4.61569" ry="4.72173" fill="#3A466F" stroke="#302D3D" stroke-width="1.6"/>
<path fill-rule="evenodd" clip-rule="evenodd" d="M41.9225 51C41.9229 51 41.9233 50.9997 41.9233 50.9992C41.9233 46.8268 38.6169 43.4445 34.5382 43.4445C30.4595 43.4445 27.1531 46.8268 27.1531 50.9992C27.1531 50.9997 27.1534 51 27.1538 51H41.9225Z" fill="#3A466F"/>
<path d="M34.5382 44.2445C38.158 44.2445 41.1233 47.2514 41.1233 50.9992H42.7233C42.7233 46.4022 39.0757 42.6445 34.5382 42.6445V44.2445ZM27.9531 50.9992C27.9531 47.2514 30.9184 44.2445 34.5382 44.2445V42.6445C30.0006 42.6445 26.3531 46.4022 26.3531 50.9992H27.9531ZM27.1538 51.8H41.9225V50.2H27.1538V51.8ZM26.3531 50.9992C26.3531 51.4415 26.7116 51.8 27.1538 51.8V50.2C27.5952 50.2 27.9531 50.5578 27.9531 50.9992H26.3531ZM41.1233 50.9992C41.1233 50.5583 41.4806 50.2 41.9225 50.2V51.8C42.3652 51.8 42.7233 51.441 42.7233 50.9992H41.1233Z" fill="#302D3D"/>
<ellipse cx="23.4624" cy="38.7217" rx="4.61569" ry="4.72173" fill="#5D739C" stroke="#302D3D" stroke-width="1.6"/>
<path fill-rule="evenodd" clip-rule="evenodd" d="M30.8461 50.999C30.8465 50.999 30.8469 50.9987 30.8469 50.9983C30.8469 46.8259 27.5404 43.4435 23.4618 43.4435C19.3831 43.4435 16.0767 46.8259 16.0767 50.9983C16.0767 50.9987 16.077 50.999 16.0774 50.999H30.8461Z" fill="#5D739C"/>
<path d="M23.4618 44.2435C27.0816 44.2435 30.0469 47.2505 30.0469 50.9983H31.6469C31.6469 46.4013 27.9993 42.6435 23.4618 42.6435V44.2435ZM16.8767 50.9983C16.8767 47.2505 19.8419 44.2435 23.4618 44.2435V42.6435C18.9242 42.6435 15.2767 46.4013 15.2767 50.9983H16.8767ZM16.0774 51.799H30.8461V50.199H16.0774V51.799ZM15.2767 50.9983C15.2767 51.4406 15.6352 51.799 16.0774 51.799V50.199C16.5188 50.199 16.8767 50.5568 16.8767 50.9983H15.2767ZM30.0469 50.9983C30.0469 50.5564 30.4052 50.199 30.8461 50.199V51.799C31.2879 51.799 31.6469 51.441 31.6469 50.9983H30.0469Z" fill="#302D3D"/>
<ellipse cx="45.6154" cy="38.7217" rx="4.61569" ry="4.72173" fill="#5D739C" stroke="#302D3D" stroke-width="1.6"/>
<path fill-rule="evenodd" clip-rule="evenodd" d="M52.9994 51C52.9998 51 53.0002 50.9997 53.0002 50.9992C53.0002 46.8268 49.6938 43.4445 45.6151 43.4445C41.5364 43.4445 38.23 46.8268 38.23 50.9992C38.23 50.9997 38.2303 51 38.2307 51H52.9994Z" fill="#5D739C"/>
<path d="M45.6151 44.2445C49.2349 44.2445 52.2002 47.2514 52.2002 50.9992H53.8002C53.8002 46.4022 50.1526 42.6445 45.6151 42.6445V44.2445ZM39.03 50.9992C39.03 47.2514 41.9953 44.2445 45.6151 44.2445V42.6445C41.0775 42.6445 37.43 46.4022 37.43 50.9992H39.03ZM38.2307 51.8H52.9994V50.2H38.2307V51.8ZM37.43 50.9992C37.43 51.4415 37.7885 51.8 38.2307 51.8V50.2C38.6721 50.2 39.03 50.5578 39.03 50.9992H37.43ZM52.2002 50.9992C52.2002 50.5583 52.5575 50.2 52.9994 50.2V51.8C53.4421 51.8 53.8002 51.441 53.8002 50.9992H52.2002Z" fill="#302D3D"/>
</svg>
